<?xml version="1.0" standalone="no"?>
<!DOCTYPE svg PUBLIC "-//W3C//DTD SVG 20010904//EN"
 "http://www.w3.org/TR/2001/REC-SVG-20010904/DTD/svg10.dtd">
<svg version="1.0" xmlns="http://www.w3.org/2000/svg"
 width="960.000000pt" height="955.000000pt" viewBox="0 0 960.000000 955.000000"
 preserveAspectRatio="xMidYMid meet">

<g transform="translate(0.000000,955.000000) scale(0.100000,-0.100000)"
fill="#000000" stroke="none">
<path d="M5284 8061 c-84 -38 -104 -76 -210 -396 l-97 -291 -236 -12 c-418
-20 -732 -84 -1101 -224 -609 -230 -1197 -696 -1569 -1243 -336 -493 -526
-1030 -582 -1645 -14 -158 -6 -533 15 -698 109 -833 516 -1592 1145 -2135 816
-704 1898 -978 2946 -746 495 110 933 316 1343 632 849 655 1342 1699 1309
2772 -14 421 -87 774 -245 1170 -336 846 -1026 1537 -1874 1876 -57 23 -107
45 -112 49 -4 5 27 113 69 240 68 205 77 238 72 282 -8 64 -48 131 -96 164
-21 13 -172 69 -336 124 -322 108 -364 116 -441 81z m-1341 -1456 c85 -30 148
-131 132 -212 -3 -19 -18 -48 -33 -64 l-28 -31 -249 -8 c-155 -6 -276 -15
-318 -24 -163 -36 -541 -146 -647 -187 -123 -49 -176 -31 -174 58 1 56 23 86
104 140 210 141 586 284 890 339 96 17 259 12 323 -11z m2142 -75 c261 -56
589 -189 783 -317 89 -59 112 -90 112 -152 0 -31 -6 -44 -26 -60 -15 -12 -33
-21 -40 -21 -8 0 -94 27 -191 59 -456 153 -656 190 -1010 191 l-121 0 -26 30
c-46 55 -45 129 3 207 25 40 57 61 118 79 68 19 271 11 398 -16z m-2557 -530
c126 -62 247 -212 294 -365 30 -96 29 -218 -1 -297 -60 -155 -225 -247 -447
-248 -200 0 -356 94 -439 265 -116 235 -21 516 213 634 85 43 123 51 225 47
75 -3 97 -8 155 -36z m2631 -31 c180 -41 341 -219 359 -397 17 -165 -21 -284
-125 -393 -102 -107 -202 -149 -357 -149 -212 0 -374 86 -442 235 -109 236 81
615 351 701 49 15 154 17 214 3z m-1074 -1259 c-9 -14 -128 -49 -223 -65 -110
-19 -283 -19 -380 0 -88 18 -202 55 -202 66 0 4 182 8 405 8 240 0 403 -4 400
-9z m-536 -675 c-10 -179 -12 -185 -48 -185 -58 0 -85 -31 -40 -45 25 -8 12
-27 -30 -45 -22 -9 -35 -9 -50 0 -26 13 -27 26 -2 33 29 7 48 43 71 137 12 47
35 113 51 146 16 34 29 66 29 71 0 9 22 35 25 30 1 -1 -2 -65 -6 -142z m339
-26 c-3 -8 -7 -3 -11 10 -4 17 -3 21 5 13 5 -5 8 -16 6 -23z m292 -1 c0 -16
-31 -48 -47 -48 -19 0 -16 10 9 37 24 25 38 30 38 11z m-289 -113 c13 -27 24
-54 25 -60 0 -5 4 -18 9 -27 4 -10 5 -24 2 -32 -3 -8 1 -20 8 -26 8 -7 12 -16
9 -21 -7 -11 -132 -10 -159 1 -16 7 -16 9 -4 9 22 1 29 21 40 106 19 154 29
187 39 135 4 -19 18 -57 31 -85z m-271 56 c0 -59 -11 -101 -26 -101 -17 0 -20
101 -3 131 15 28 29 14 29 -30z m-199 -4 c-10 -9 -11 -8 -5 6 3 10 9 15 12 12
3 -3 0 -11 -7 -18z m855 11 c14 -23 -92 -90 -128 -80 -28 7 -21 17 32 46 27
15 52 31 55 36 8 14 32 12 41 -2z m-572 -14 c4 -9 0 -24 -8 -33 -9 -9 -14 -30
-13 -45 1 -16 -3 -31 -9 -33 -6 -2 -9 19 -8 59 3 76 1 68 18 68 8 0 17 -7 20
-16z m93 -46 c-3 -8 -6 -5 -6 6 -1 11 2 17 5 13 3 -3 4 -12 1 -19z m-399 -19
c-6 -16 -12 -28 -14 -26 -5 5 13 57 20 57 3 0 0 -14 -6 -31z m-183 -39 c3 -5
1 -10 -4 -10 -6 0 -11 5 -11 10 0 6 2 10 4 10 3 0 8 -4 11 -10z m390 -50 c3
-5 2 -10 -4 -10 -5 0 -13 5 -16 10 -3 6 -2 10 4 10 5 0 13 -4 16 -10z m61 -26
c-3 -8 -10 -12 -16 -9 -7 4 -6 14 2 28 12 24 24 8 14 -19z m-182 -28 c-9 -36
27 -56 103 -56 47 0 63 4 63 14 0 9 -17 16 -45 20 -45 7 -58 21 -30 32 18 7
82 -13 92 -29 4 -6 10 -27 13 -47 l6 -35 14 33 15 33 95 -2 c120 -2 145 -6
129 -25 -6 -8 -20 -14 -31 -14 -10 0 -16 -4 -13 -10 3 -5 15 -10 25 -10 14 0
19 -6 17 -21 -3 -35 18 -32 28 3 8 25 16 32 40 34 17 1 51 4 78 8 35 4 52 2
65 -10 18 -15 18 -18 -5 -82 -14 -37 -32 -75 -41 -86 -30 -33 -92 -58 -127
-52 -18 4 -40 4 -49 0 -31 -12 -120 -164 -96 -164 6 0 10 5 10 10 0 6 5 10 10
10 18 0 10 -24 -20 -60 -43 -50 -39 -68 30 -122 51 -41 67 -48 104 -48 41 0
48 -4 89 -52 25 -29 64 -64 87 -78 89 -54 205 -133 218 -148 23 -30 82 -156
82 -177 -1 -15 -22 -31 -87 -64 -268 -134 -420 -290 -431 -442 -9 -125 47
-208 248 -363 30 -23 63 -45 73 -49 23 -9 22 -53 -2 -110 -25 -59 -65 -87
-381 -267 -324 -184 -675 -370 -701 -370 -14 0 -25 13 -192 235 -166 220 -240
321 -286 388 -30 43 -31 51 -21 81 6 19 18 40 26 46 7 7 14 20 14 30 0 9 12
35 26 56 33 49 33 49 41 41 3 -4 -1 -15 -9 -24 -9 -10 -19 -29 -23 -41 -6 -21
-4 -23 13 -18 11 4 24 0 32 -9 7 -8 19 -15 26 -15 8 0 14 -4 14 -10 0 -5 -6
-10 -14 -10 -24 0 -26 -15 -8 -41 9 -13 15 -32 14 -41 -3 -19 56 -138 68 -138
5 0 11 -13 15 -30 4 -16 11 -32 16 -35 5 -4 9 -26 9 -51 0 -41 2 -44 26 -44
28 0 33 -4 84 -70 42 -55 138 -150 151 -150 5 0 9 4 9 9 0 4 35 11 78 14 91 7
161 25 143 37 -7 4 -21 6 -30 3 -9 -2 -30 3 -46 11 -17 9 -34 16 -40 16 -5 1
-23 12 -40 26 l-30 26 28 -6 c15 -4 27 -4 27 -1 0 12 -74 144 -121 214 -27 41
-49 77 -49 80 0 4 -9 24 -20 46 -11 22 -20 46 -20 53 0 9 -7 13 -20 9 -10 -3
-19 -2 -18 2 3 15 -15 60 -22 56 -8 -5 -22 32 -26 73 -2 13 -10 34 -18 47 -26
39 -37 113 -39 249 l-2 130 60 28 c158 75 286 165 390 275 68 72 215 367 215
431 0 17 5 42 11 56 11 24 3 115 -14 156 -5 11 21 29 105 70 61 30 114 61 116
68 3 10 -3 9 -22 -3 -14 -9 -40 -21 -58 -25 -18 -5 -66 -18 -107 -30 l-73 -22
-52 50 c-28 28 -75 63 -104 77 -49 24 -61 45 -26 45 11 0 13 6 9 21 -7 21 -5
21 74 14 71 -6 81 -5 81 9 0 12 -10 16 -40 16 -74 0 -259 46 -243 60 4 5 25
10 46 13 21 3 41 8 44 11 4 3 -10 20 -30 38 l-35 32 29 42 c16 23 33 54 39 68
17 44 50 28 50 -25 0 -23 6 -24 26 -5 16 17 19 36 4 36 -17 0 -11 29 10 50 11
11 29 20 40 20 16 0 19 -5 14 -24z m232 8 c17 -14 17 -15 1 -10 -10 3 -23 6
-28 6 -5 0 -9 5 -9 10 0 14 13 12 36 -6z m-571 -34 c-3 -5 -2 -10 4 -10 5 0
13 5 16 10 3 6 21 10 39 10 24 0 36 -6 45 -24 32 -60 -12 -104 -93 -92 l-48 7
7 42 c4 23 12 48 17 55 12 14 22 16 13 2z m1022 -42 c-3 -8 -6 -5 -6 6 -1 11
2 17 5 13 3 -3 4 -12 1 -19z m-898 -75 c-8 -10 -22 -24 -31 -31 -10 -7 -18
-20 -18 -29 0 -9 -5 -32 -12 -50 -9 -25 -9 -41 -1 -63 6 -17 8 -32 4 -34 -17
-11 -30 13 -34 62 -4 37 -11 60 -26 73 -33 31 -26 46 26 54 26 4 56 13 67 21
28 19 41 18 25 -3z m1028 -115 c-3 -7 -5 -2 -5 12 0 14 2 19 5 13 2 -7 2 -19
0 -25z m-416 -165 c-12 -20 -14 -14 -5 12 4 9 9 14 11 11 3 -2 0 -13 -6 -23z
m-1101 -1179 c0 -4 -8 -13 -17 -20 -17 -13 -17 -15 0 -25 29 -17 21 -69 -22
-135 -22 -34 -43 -77 -46 -97 -4 -21 -11 -37 -15 -37 -11 0 -60 -107 -60 -131
0 -11 -4 -19 -8 -19 -5 0 -49 62 -99 138 -152 231 -184 283 -178 293 4 5 57 9
118 10 62 0 144 6 182 13 78 15 145 19 145 10z m50 -209 c0 -3 -4 -13 -10 -23
-5 -9 -14 -30 -20 -45 -5 -16 -14 -26 -20 -22 -10 6 -2 35 10 35 5 0 11 14 15
30 4 17 11 30 16 30 5 0 9 -2 9 -5z m240 -329 c0 -11 -19 -15 -25 -6 -3 5 1
10 9 10 9 0 16 -2 16 -4z"/>
<path d="M5045 3620 c-3 -6 4 -14 17 -19 29 -11 35 -6 18 14 -14 17 -26 19
-35 5z"/>
<path d="M4478 3554 c6 -3 12 -12 12 -19 0 -21 25 -24 71 -11 l44 13 -45 5
c-25 3 -56 8 -70 12 -14 3 -19 4 -12 0z"/>
<path d="M4388 3523 c7 -3 16 -2 19 1 4 3 -2 6 -13 5 -11 0 -14 -3 -6 -6z"/>
<path d="M4550 2095 c0 -33 2 -35 20 -25 23 12 24 15 10 41 -16 30 -30 22 -30
-16z"/>
<path d="M4460 1943 c0 -4 8 -17 16 -28 15 -20 16 -20 12 4 -3 22 -28 44 -28
24z"/>
<path d="M4356 1871 c-10 -15 33 -20 45 -5 9 11 7 14 -14 14 -14 0 -28 -4 -31
-9z"/>
<path d="M4440 1841 c0 -5 7 -16 15 -25 8 -8 15 -21 15 -30 0 -8 5 -18 10 -21
6 -4 10 12 9 42 0 36 -3 43 -9 28 -7 -17 -9 -17 -9 -2 -1 17 -31 25 -31 8z"/>
<path d="M4052 1705 c0 -16 2 -22 5 -12 2 9 2 23 0 30 -3 6 -5 -1 -5 -18z"/>
<path d="M3625 2033 c-22 -20 -32 -33 -21 -30 23 9 75 49 75 60 2 15 -15 6
-54 -30z"/>
<path d="M3560 1980 c-8 -5 -11 -12 -7 -16 4 -4 15 0 24 9 18 18 8 23 -17 7z"/>
</g>
</svg>
